<svg width="16" height="16" viewBox="0 0 16 16" fill="none" xmlns="http://www.w3.org/2000/svg">
<g clip-path="url(#clip0_22_632)">
<path d="M15.9906 5.87742C15.8953 4.48578 15.0576 3.195 13.6074 2.2184C13.5111 2.15357 13.4128 2.09068 13.3126 2.02961C13.2668 1.97716 13.2045 1.93936 13.1334 1.92385C11.6979 1.0992 9.89828 0.649414 7.99998 0.649414C7.76444 0.649414 7.53057 0.656735 7.29855 0.670412C7.26182 0.666652 7.22444 0.668615 7.18797 0.677268C5.38026 0.801128 3.70099 1.3373 2.39257 2.21843C0.915972 3.21277 0.0748418 4.5329 0.00525789 5.95353C0.00202995 5.97217 0 5.99123 0 6.0108V9.85469C0 11.348 0.849682 12.7426 2.39257 13.7816C3.89503 14.7934 5.88648 15.3506 7.99998 15.3506C10.1135 15.3506 12.1049 14.7934 13.6074 13.7816C15.1503 12.7426 16 11.348 16 9.85469V5.95453C16 5.92794 15.9965 5.90222 15.9906 5.87742ZM15.1966 5.21173C13.7451 4.30372 11.6564 3.74611 9.68471 4.33197C9.68357 4.3323 9.68248 4.33267 9.68131 4.33297C8.90095 4.57383 8.45007 4.98468 8.0912 5.4315C7.97559 5.1527 7.91606 4.88984 8.00055 4.61955C8.25832 3.7733 9.13782 3.28541 9.83023 3.02518C10.7132 2.6933 11.8363 2.53144 12.9297 2.57603C13.0338 2.63873 13.136 2.70339 13.2356 2.77041C14.2504 3.4538 14.9234 4.29859 15.1966 5.21173ZM13.3333 9.45309C12.3321 10.1533 11.0432 10.6392 9.63436 10.8529C9.86976 10.6303 10.0786 10.3926 10.2547 10.1446C10.6744 9.55319 10.8848 8.93382 10.8628 8.35356C10.8398 7.74397 10.5493 6.88215 9.29582 6.23799C9.24863 6.21376 9.20091 6.19017 9.15286 6.16701C9.55865 6.10874 9.97183 6.09499 10.4159 6.17619C12.5095 6.59646 13.379 8.09962 13.3333 9.45309ZM7.31806 7.39309C7.57476 7.18784 7.77652 6.96438 7.95496 6.73679C7.96993 6.78155 7.98368 6.82621 7.99473 6.8708C7.99536 6.87336 7.99602 6.87589 7.99672 6.87842C8.12557 7.3508 8.02724 7.79409 7.70451 8.19589C6.93676 9.15176 4.99403 9.78144 3.0591 9.7079C2.95876 9.64727 2.86036 9.58484 2.76435 9.52018C1.79697 8.86873 1.14043 8.0705 0.844524 7.20627C1.66243 7.66401 2.63474 7.99985 3.57227 8.13745C3.86951 8.18108 4.20465 8.21159 4.56096 8.21159C5.43413 8.21159 6.4332 8.02803 7.30414 7.40374C7.30887 7.40028 7.3135 7.39675 7.31806 7.39309ZM8.22338 8.61269C8.67975 8.04454 8.82368 7.38564 8.63985 6.7071C8.63569 6.69037 8.63063 6.67403 8.62611 6.65745C8.75153 6.71266 8.87436 6.76977 8.99186 6.83007C9.76833 7.22907 10.174 7.7501 10.1978 8.37868C10.2306 9.24647 9.52817 10.2565 8.40318 10.968C8.26933 10.9729 8.13496 10.9757 8.00002 10.9757C6.69213 10.9757 5.43789 10.7506 4.33547 10.328C6.00744 10.1476 7.50301 9.50959 8.22338 8.61269ZM11.6313 1.95001C10.9012 2.02209 10.1986 2.1757 9.59609 2.40216C8.40231 2.85087 7.63043 3.55057 7.36461 4.42325C7.2501 4.78954 7.2883 5.12884 7.38797 5.44458C6.6891 5.14887 6.10338 4.80901 5.89876 4.24065C5.57357 3.29913 6.0715 2.32099 7.37779 1.33241C7.58358 1.32103 7.79103 1.31494 7.99998 1.31494C9.29479 1.31497 10.537 1.53557 11.6313 1.95001ZM6.21816 1.4587C5.02292 2.66465 5.01779 3.73097 5.2705 4.46035C5.2709 4.46145 5.27127 4.46255 5.2717 4.46368C5.53436 5.19649 6.16914 5.62291 6.89812 5.95603C6.80987 5.96884 6.72112 5.98038 6.63147 5.989C5.38129 6.11726 4.25726 5.78491 3.46665 5.0536C2.85733 4.48994 2.48951 3.72568 2.46485 2.98478C2.56123 2.91177 2.66079 2.84016 2.76435 2.77041C3.73004 2.12013 4.91936 1.67247 6.21816 1.4587ZM1.8582 3.5118C2.00459 4.25836 2.41214 4.98478 3.0147 5.54218C3.94765 6.40521 5.2561 6.79899 6.69726 6.65133C6.87513 6.63423 7.04777 6.609 7.21672 6.57915C7.12315 6.68018 7.02221 6.77689 6.9092 6.86787C5.0518 8.19203 2.14818 7.34002 0.670514 6.31403C0.667553 6.25792 0.665556 6.20171 0.665556 6.14531C0.665556 5.19962 1.08233 4.29107 1.8582 3.5118ZM13.2356 13.2296C11.8418 14.1681 9.98244 14.685 7.99998 14.685C6.01752 14.685 4.15813 14.1681 2.76432 13.2296C1.41091 12.3181 0.665556 11.1196 0.665556 9.85469V8.35502C1.06952 8.99056 1.65061 9.57259 2.39257 10.0723C2.50891 10.1506 2.62851 10.2259 2.75054 10.2987C2.77254 10.316 2.7968 10.3305 2.82286 10.3418C4.26542 11.1825 6.08245 11.6413 7.99998 11.6413C10.5834 11.6413 13.0191 10.7823 14.5153 9.34357C14.6478 9.21618 14.6519 9.00554 14.5245 8.87302C14.3972 8.74061 14.1865 8.73642 14.0539 8.86384C14.029 8.8879 14.003 8.91136 13.9774 8.93505C13.9044 8.28624 13.6603 7.66381 13.2635 7.13283C12.6509 6.31326 11.7105 5.75662 10.5438 5.52305C10.5421 5.52271 10.5404 5.52235 10.5386 5.52205C9.94654 5.41326 9.40817 5.44681 8.89665 5.53323C9.14384 5.29759 9.4458 5.10255 9.87589 4.96957C11.8846 4.3735 14.0355 5.10481 15.3339 6.11795C15.3339 6.12711 15.3344 6.13622 15.3344 6.14538C15.3344 6.61632 15.2305 7.08201 15.0257 7.52953C14.9492 7.69662 15.0227 7.89412 15.1898 7.97063C15.2367 7.99209 15.286 8.00134 15.3344 8.00041V9.85475C15.3344 11.1196 14.5891 12.3181 13.2356 13.2296Z" fill="white"/>
</g>
<defs>
<clipPath id="clip0_22_632">
<rect width="16" height="16" fill="white"/>
</clipPath>
</defs>
</svg>
