<svg width="15" height="16" viewBox="0 0 15 16" fill="none" xmlns="http://www.w3.org/2000/svg">
<path d="M7.64002 14.0727H5.47063C3.1126 14.0727 1.13185 12.3382 0.75457 10.0255L0 5.78561C0 5.49653 -1.82714e-07 5.3038 0.188642 5.11108C0.377285 4.91835 0.565927 4.82199 0.84889 4.82199H12.2618C12.5447 4.82199 12.7334 4.91835 12.922 5.11108C13.1106 5.3038 13.1106 5.59289 13.1106 5.78561L12.3561 10.0255C11.9788 12.4346 9.99804 14.0727 7.64002 14.0727ZM1.03753 5.88197L1.69778 9.92918C1.98074 11.8564 3.5842 13.2055 5.47063 13.2055H7.64002C9.52644 13.2055 11.1299 11.8564 11.4129 9.92918L12.0731 5.88197H1.03753Z" fill="#726E6E"/>
<path d="M12.1674 6.46014C12.639 5.97833 13.6766 5.59289 14.5255 6.46014C15.0914 7.03832 15.1857 8.19466 14.6198 9.06192C14.2425 9.73645 13.5822 10.1219 12.8277 10.1219C12.5447 10.1219 12.2617 10.0255 11.8845 9.92918L12.1674 8.96556C13.1106 9.25464 13.5822 8.86919 13.7709 8.48375C14.0538 8.00194 14.0538 7.3274 13.7709 7.03832C13.2993 6.55651 12.922 6.94195 12.7334 7.03832L12.1674 6.46014Z" fill="#726E6E"/>
<path d="M4.5274 4.24383C4.33876 4.24383 4.24444 4.14747 4.15012 4.05111C4.15012 3.95475 3.86716 3.5693 3.86716 2.99113C3.86716 2.41295 4.15012 1.93114 4.15012 1.93114C4.15012 1.93114 4.33876 1.64206 4.33876 1.35297C4.33876 1.06389 4.15012 0.774799 4.15012 0.774799C4.0558 0.582075 4.0558 0.292989 4.33876 0.100265C4.52741 0.00390292 4.81037 0.00390273 4.99901 0.292989C4.99901 0.389351 5.28197 0.774799 5.28197 1.35297C5.28197 1.93114 4.99901 2.41295 4.99901 2.41295C4.99901 2.41295 4.81037 2.70204 4.81037 2.99113C4.81037 3.28021 4.99901 3.5693 4.99901 3.5693C5.09333 3.76202 5.09333 4.05111 4.81037 4.24383C4.62173 4.24383 4.62173 4.24383 4.5274 4.24383Z" fill="#726E6E"/>
<path d="M6.60248 4.24383C6.41384 4.24383 6.31952 4.14747 6.22519 4.05111C6.22519 4.05111 5.94223 3.5693 5.94223 2.99113C5.94223 2.41295 6.22519 1.93114 6.22519 1.93114C6.22519 1.93114 6.41384 1.64206 6.41384 1.35297C6.41384 1.06389 6.22519 0.774799 6.22519 0.774799C6.13087 0.582075 6.13087 0.292989 6.41384 0.100265C6.60248 0.00390292 6.88544 0.00390273 7.07409 0.292989C7.07409 0.389351 7.35705 0.774799 7.35705 1.35297C7.35705 1.93114 7.07409 2.41295 7.07409 2.41295C7.07409 2.41295 6.88544 2.70204 6.88544 2.99113C6.88544 3.28021 7.07409 3.5693 7.07409 3.5693C7.16841 3.76202 7.16841 4.05111 6.88544 4.24383C6.79112 4.24383 6.6968 4.24383 6.60248 4.24383Z" fill="#726E6E"/>
<path d="M8.67755 4.24383C8.48891 4.24383 8.39459 4.14747 8.30027 4.05111C8.30027 4.05111 8.0173 3.5693 8.0173 2.99113C8.0173 2.41296 8.30027 1.93114 8.30027 1.93114C8.30027 1.93114 8.48891 1.64206 8.48891 1.35297C8.48891 1.06389 8.30027 0.7748 8.30027 0.7748C8.20595 0.582076 8.20595 0.292991 8.48891 0.100267C8.77187 -0.0924575 8.96052 0.00390429 9.14916 0.29299C9.14916 0.389352 9.43212 0.774801 9.43212 1.35297C9.43212 1.93115 9.14916 2.41295 9.14916 2.41295C9.14916 2.41295 8.96052 2.70204 8.96052 2.99113C8.96052 3.28021 9.14916 3.5693 9.14916 3.5693C9.24348 3.76202 9.24348 4.05111 8.96052 4.24383C8.86619 4.24383 8.77187 4.24383 8.67755 4.24383Z" fill="#726E6E"/>
<path d="M12.7334 16H0.471606C0.188642 16 0 15.8073 0 15.5182C0 15.2291 0.188642 15.0364 0.471606 15.0364H12.7334C13.0163 15.0364 13.205 15.2291 13.205 15.5182C13.205 15.8073 13.0163 16 12.7334 16Z" fill="#726E6E"/>
</svg>
