<svg width="27" height="29" viewBox="0 0 27 29" fill="none" xmlns="http://www.w3.org/2000/svg">
<path d="M22.6249 18.8185C22.6652 19.0021 22.6865 19.1933 22.6865 19.39C22.6865 20.7626 21.6507 21.8755 20.3727 21.8755C19.1439 21.8755 18.1386 20.8464 18.0634 19.5469L18.8446 19.4226C18.8605 20.3131 19.5401 21.0321 20.3727 21.0321C21.2155 21.0321 21.9013 20.2955 21.9013 19.39C21.9013 19.235 21.8812 19.0853 21.844 18.9431L22.6249 18.8185Z" fill="white"/>
<path d="M6.63382 18.7493C6.74832 18.6702 6.88462 18.6243 7.03093 18.6243C7.23924 18.6243 7.42737 18.7173 7.56127 18.8667C7.64413 18.9593 7.70626 19.0736 7.73941 19.2008C7.75713 19.2687 7.7666 19.3403 7.7666 19.4143C7.7666 19.8508 7.43726 20.2045 7.03093 20.2045C6.62469 20.2045 6.29535 19.8508 6.29535 19.4143C6.29535 19.3403 6.30482 19.2687 6.32253 19.2008C6.37167 19.0125 6.48421 18.8525 6.63382 18.7493Z" fill="white"/>
<path d="M19.6398 19.4142C19.6398 19.3734 19.6428 19.3331 19.6483 19.2939L21.0383 19.0719C21.0569 19.113 21.0721 19.1559 21.0838 19.2008C21.1014 19.2688 21.1108 19.3403 21.1108 19.4142C21.1108 19.8507 20.7817 20.2045 20.3753 20.2045C19.969 20.2045 19.6398 19.8507 19.6398 19.4142Z" fill="white"/>
<path d="M5.56069 15.2352C5.54975 14.2345 5.74599 13.3869 6.41891 13.2948C8.14648 13.0587 11.3819 12.8901 11.2246 14.1045C11.0676 15.319 9.68556 16.7023 10.0311 17.365C10.3766 18.0275 15.308 17.9843 16.0619 17.5121C16.8157 17.0398 17.7266 13.6659 17.0356 11.5737C16.7952 10.8452 16.7225 10.2075 16.7294 9.68493H15.983C15.9082 9.77776 15.7979 9.83674 15.6745 9.83674H14.2715C14.046 9.83674 13.8632 9.64038 13.8632 9.39818C13.8632 9.15594 14.046 8.95958 14.2715 8.95958H15.6745C15.7979 8.95958 15.9082 9.01857 15.983 9.11139H16.7894C16.8552 8.87078 16.9807 8.65891 17.1471 8.49436C17.2025 8.43967 17.2621 8.39031 17.326 8.34681C17.4469 7.63556 17.865 7.12463 18.3759 7.12463C18.9845 7.12463 19.4612 7.84926 19.4612 8.77398C19.4612 9.56556 19.1122 10.2101 18.63 10.3795C18.879 10.7299 19.2085 11.1239 19.6428 11.5636C21.1704 13.1099 21.4168 15.0103 21.4014 16.1554C22.0966 16.4657 22.6502 17.0967 22.8789 17.9022C22.9386 18.1123 22.8096 18.3304 22.6073 18.3627L22.4881 18.3818L21.6644 18.5133L21.2233 18.5838L20.1875 18.7492L18.8988 18.9551L18.0759 19.0864L17.9564 19.1055C17.7553 19.1376 17.5718 18.9716 17.5719 18.7532C17.5719 18.7519 17.5719 18.7505 17.5719 18.7491H9.23771C9.29284 18.9607 9.32241 19.1837 9.32241 19.4143C9.32241 20.7736 8.29654 21.8755 7.03095 21.8755C5.76562 21.8755 4.73975 20.7736 4.73975 19.4143C4.73975 19.1837 4.76932 18.9607 4.82445 18.7491H4.7944C4.53733 18.7491 4.30732 18.5739 4.22535 18.3118C4.1481 18.0653 4.10636 17.8014 4.10636 17.5269C4.10633 16.4852 4.70922 15.5943 5.56069 15.2352ZM18.2003 9.67173C18.2572 9.72643 18.3176 9.7563 18.376 9.7563C18.595 9.7563 18.8402 9.33609 18.8402 8.77395C18.8402 8.21181 18.595 7.79158 18.376 7.79158C18.1601 7.79158 17.9187 8.20007 17.9119 8.7502C17.9117 8.75794 17.9117 8.76595 17.9117 8.77395C17.9117 9.18616 18.0436 9.52206 18.2003 9.67173ZM7.03095 21.038C7.86454 21.038 8.5427 20.3097 8.5427 19.4143C8.5427 19.1777 8.49526 18.9525 8.41005 18.7492H8.3867C8.39091 18.7412 8.39539 18.7329 8.3996 18.7249C8.15768 18.1735 7.63504 17.7909 7.03095 17.7909C6.62357 17.7909 6.25348 17.9645 5.98145 18.2471C5.84411 18.3896 5.73181 18.5598 5.65232 18.7492C5.56687 18.9525 5.51946 19.1777 5.51946 19.4143C5.51946 20.3097 6.19759 21.038 7.03095 21.038Z" fill="white"/>
<path d="M14.833 17.3274C14.3782 17.3764 13.787 17.4114 13.0828 17.4114C11.5763 17.4114 10.6431 17.2446 10.3981 17.1131C10.3994 17.0712 10.4126 16.9816 10.4786 16.8167C10.5651 16.6022 10.7054 16.3477 10.8559 16.0774C11.7387 16.7799 13.1081 16.6217 13.8633 16.6766C14.4164 16.7169 14.6939 17.0278 14.833 17.3274Z" fill="white"/>
<path d="M6.20592 12.8775L6.51815 12.4207C6.71836 12.128 7.02735 11.9445 7.36444 11.9178C7.92928 11.873 8.83321 11.837 9.55727 11.9722C10.2165 12.0955 10.5285 12.5472 10.6743 12.9074C10.2066 12.7505 9.56599 12.6734 8.74303 12.6734C7.76585 12.6734 6.83411 12.7809 6.36563 12.8449C6.31295 12.8521 6.25957 12.8628 6.20592 12.8775Z" fill="white"/>
</svg>
