<svg width="16" height="18" viewBox="0 0 16 18" fill="none" xmlns="http://www.w3.org/2000/svg">
<path d="M1 10.1429V1.57143C1 1.30206 1 1.16737 1.08555 1.08368C1.17111 1 1.30881 1 1.58421 1H6.3581C6.59692 1 6.71622 1 6.8236 1.0435C6.93097 1.08699 7.01545 1.16958 7.18428 1.33473L7.66824 1.80813C7.83708 1.97328 7.92155 2.05586 8.02893 2.09936C8.13631 2.14286 8.2556 2.14286 8.49442 2.14286H14.4641C14.7816 2.14286 14.9405 2.14286 14.9882 2.24026C15.0359 2.33766 14.9362 2.45867 14.7371 2.70071L11.7288 6.35597C11.5874 6.5277 11.5168 6.61358 11.5168 6.71429C11.5168 6.81499 11.5874 6.90087 11.7288 7.07261L14.7371 10.7279C14.9362 10.9699 15.0359 11.0909 14.9882 11.1883C14.9405 11.2857 14.7816 11.2857 14.4641 11.2857H8.49442C8.2556 11.2857 8.13631 11.2857 8.02893 11.2422C7.92155 11.1987 7.83708 11.1161 7.66824 10.951L7.18428 10.4776C7.01545 10.3125 6.93097 10.2298 6.8236 10.1864C6.71622 10.1429 6.59692 10.1429 6.3581 10.1429H1ZM1 10.1429V17" stroke="#FD9042" stroke-width="1.5" stroke-linecap="round"/>
</svg>
