<svg width="22" height="22" viewBox="0 0 22 22" fill="none" xmlns="http://www.w3.org/2000/svg">
<g clip-path="url(#clip0_22_634)">
<path d="M13.3544 7.7102L12.3565 5.83542C12.1103 5.38617 11.9591 4.86347 11.9332 4.37966H12.0153C12.1924 4.37966 12.3392 4.23279 12.3392 4.05568V2.4444C12.3392 2.28457 12.2269 2.15066 12.0714 2.12474C11.1038 1.96059 9.94177 1.95627 8.80135 2.12474C8.64151 2.14634 8.52488 2.28457 8.52488 2.4444V4.05568C8.52488 4.23279 8.67175 4.37966 8.84886 4.37966H8.93094C8.9007 4.86347 8.74951 5.38617 8.50328 5.83974L7.50973 7.71452C7.15983 8.30201 7 8.9327 7 9.70162V13.7838C7 13.8097 7.00432 13.8356 7.00864 13.8616L7.59613 16.2763C7.69116 16.7213 7.65661 17.1964 7.48813 17.65C7.48813 17.6543 7.48381 17.6586 7.48381 17.663L7.25487 18.4016C7.06048 18.8768 6.99568 19.365 7.0648 19.8444C7.0648 19.8574 7.06912 19.8704 7.07344 19.8876C7.14687 20.1598 7.17279 20.2937 7.19871 20.4319C7.21167 20.5011 7.22463 20.5702 7.24191 20.6566C7.28079 20.9849 7.44494 21.2786 7.71276 21.4773C8.02379 21.7106 8.43848 21.8013 8.85318 21.7279C8.8575 21.7279 8.86182 21.7279 8.86614 21.7235L9.16421 21.6544C9.46227 21.905 9.83377 22 10.0843 22H10.7884C11.1383 22 11.363 21.8488 11.5617 21.7149C11.5962 21.6933 11.6308 21.6674 11.6654 21.6458L12.0066 21.7235C12.0109 21.7235 12.0153 21.7235 12.0196 21.7279C12.4343 21.8056 12.849 21.7106 13.16 21.4773C13.4278 21.2786 13.592 20.9849 13.6309 20.6566C13.6481 20.5702 13.6611 20.4967 13.674 20.4319C13.7 20.2937 13.7216 20.1598 13.7993 19.8876C13.8036 19.8747 13.808 19.8617 13.808 19.8444C13.8728 19.365 13.808 18.8768 13.6179 18.4016L13.3889 17.663C13.3889 17.6586 13.3846 17.6543 13.3846 17.65C13.2205 17.1964 13.1816 16.7213 13.2766 16.2763L13.8641 13.8616C13.8684 13.8356 13.8728 13.8097 13.8728 13.7838V9.70162C13.8641 8.92838 13.7 8.29769 13.3544 7.7102ZM9.16853 2.72951C10.0498 2.62583 10.9267 2.62151 11.6913 2.72519V3.73601H9.16853V2.72951ZM8.06698 8.03419C8.0713 8.02987 8.0713 8.02555 8.07562 8.02123L9.07349 6.14645C9.37156 5.60648 9.54867 4.97147 9.5789 4.37966H11.2852C11.3155 4.96715 11.4926 5.60216 11.7863 6.14213L12.7842 8.02123C12.7885 8.02555 12.7885 8.02987 12.7928 8.03419C13.0002 8.38409 13.1254 8.74263 13.1816 9.15733H7.6782C7.73436 8.74263 7.85963 8.38409 8.06698 8.03419ZM13.1643 19.7321C13.0866 20.0172 13.0606 20.1684 13.0347 20.311C13.0218 20.3801 13.0088 20.4492 12.9915 20.5313C12.9872 20.5442 12.9872 20.5572 12.9872 20.5702C12.9656 20.7689 12.8576 20.8941 12.7669 20.9589C12.6027 21.0799 12.3695 21.1317 12.1405 21.0885L11.6783 20.9849C11.6006 20.9676 11.5185 20.9805 11.4494 21.0151C11.3543 21.0669 11.2679 21.1274 11.1945 21.1749C11.0217 21.2916 10.931 21.352 10.7841 21.352H10.08C9.91153 21.352 9.66098 21.27 9.50115 21.0885C9.42339 20.9978 9.30244 20.9589 9.18581 20.9849L8.72359 21.0885C8.49464 21.1274 8.26137 21.0799 8.09722 20.9589C8.00651 20.8941 7.89851 20.7689 7.87691 20.5702C7.87691 20.5572 7.87259 20.5442 7.87259 20.5313C7.85531 20.4492 7.84236 20.3801 7.8294 20.311C7.80348 20.1684 7.77756 20.0172 7.6998 19.7321C7.65229 19.365 7.70412 19.0021 7.85532 18.6306C7.85963 18.622 7.86395 18.6133 7.86395 18.6047L8.09722 17.8617C8.30457 17.2915 8.34777 16.6953 8.2225 16.1294C8.2225 16.1251 8.2225 16.1251 8.2225 16.1208L7.73436 14.1035H13.1298L12.6416 16.1208C12.6416 16.1251 12.6416 16.1251 12.6416 16.1294C12.5207 16.691 12.5639 17.2915 12.7669 17.8617L13.0002 18.6047C13.0045 18.6133 13.0045 18.622 13.0088 18.6306C13.16 19.0021 13.2118 19.365 13.1643 19.7321ZM13.2162 13.4555H7.64365V9.80529H13.2162V13.4555Z" fill="#726E6E"/>
</g>
<defs>
<clipPath id="clip0_22_634">
<rect width="22" height="22" fill="white"/>
</clipPath>
</defs>
</svg>
