<svg width="25" height="25" viewBox="0 0 25 25" fill="none" xmlns="http://www.w3.org/2000/svg">
<path d="M17.3353 6.32589C17.562 6.25 17.8641 6.25 18.1663 6.25C20.4328 6.25 22.3216 8.14732 22.3216 10.4241C22.3216 12.7009 20.4328 14.5982 18.1663 14.5982L18.5441 21.4286H6.45618L6.83393 14.5982C4.56745 14.5982 2.67871 12.7009 2.67871 10.4241C2.67871 8.14732 4.56745 6.25 6.83393 6.25C7.13613 6.25 7.43833 6.25 7.66497 6.32589" stroke="white" stroke-width="1.5" stroke-miterlimit="10" stroke-linecap="round" stroke-linejoin="round"/>
<path d="M17.8574 8.92855C17.8574 5.94386 15.4849 3.57141 12.5002 3.57141C9.51552 3.57141 7.14307 5.94386 7.14307 8.92855" stroke="white" stroke-width="1.5" stroke-miterlimit="10" stroke-linecap="round" stroke-linejoin="round"/>
<path d="M12.5 16.0714V17.8571" stroke="white" stroke-width="1.5" stroke-miterlimit="10" stroke-linecap="round" stroke-linejoin="round"/>
<path d="M9.82129 16.0714V17.8571" stroke="white" stroke-width="1.5" stroke-miterlimit="10" stroke-linecap="round" stroke-linejoin="round"/>
<path d="M15.1787 16.0714V17.8571" stroke="white" stroke-width="1.5" stroke-miterlimit="10" stroke-linecap="round" stroke-linejoin="round"/>
</svg>
